<svg version="1.0" xmlns="http://www.w3.org/2000/svg" viewBox="0 0 305.000000 273.000000" preserveAspectRatio="xMidYMid meet">
    <g transform="translate(0.000000,273.000000) scale(0.100000,-0.100000)" fill="currentColor" stroke="none">
        <path
            d="M1370 2444 c-300 -34 -481 -121 -687 -330 -113 -114 -133 -143 -90 -129 44 14 330 18 417 5 219 -31 426 -110 615 -235 160 -107 278 -225 390 -395 143 -217 212 -416 241 -697 l6 -62 27 32 c123 145 221 352 255 542 24 131 14 322 -25 465 -68 251 -238 483 -459 625 -77 50 -170 97 -225 115 -22 7 -44 15 -50 19 -5 3 -16 6 -24 8 -7 1 -34 7 -60 13 -25 6 -57 13 -71 15 -37 8 -220 14 -260 9z m250 -118 c203 -36 368 -118 512 -255 147 -140 240 -299 290 -498 27 -107 29 -315 4 -428 -27 -125 -96 -297 -96 -240 0 40 -77 247 -133 357 -71 138 -125 219 -219 325 -214 243 -526 424 -843 489 -43 9 -248 34 -277 34 -26 0 -29 2 -18 15 22 26 152 103 227 134 73 30 210 67 273 74 47 5 237 0 280 -7z"
            fill="currentColor"
        />
        <path
            d="M601 1935 c-83 -15 -95 -25 -135 -110 -59 -122 -106 -336 -106 -475 2 -406 215 -765 571 -959 79 -43 97 -49 80 -29 -114 139 -209 331 -255 513 -39 154 -52 312 -37 460 6 67 16 138 22 156 5 19 11 45 14 59 3 14 10 45 18 70 12 44 14 45 57 48 77 6 285 -18 387 -44 429 -112 785 -428 940 -834 22 -59 32 -76 33 -57 0 41 -28 171 -56 261 -145 455 -544 817 -1014 920 -41 9 -86 19 -100 22 -59 13 -347 12 -419 -1z"
            fill="currentColor"
        />
    </g>
</svg>
